# 3ds Max Wavefront OBJ Exporter v0.97b - (c)2007 guruware
# File Created: 06.08.2020 20:56:23

mtllib Low_Log.mtl

#
# object Environment_Log_Low
#

v  -20.6871 -15.8390 -0.0000
v  -20.6871 -14.9108 -4.6664
v  20.0531 -15.4017 -4.0750
v  20.0531 -16.2123 0.0000
v  -20.6871 -12.2675 -8.6223
v  20.0531 -13.0934 -7.5296
v  -20.6871 -8.3115 -11.2656
v  20.0531 -9.6388 -9.8378
v  -20.6871 -3.6452 -12.1938
v  20.0531 -5.5638 -10.6484
v  -20.6871 1.0212 -11.2656
v  20.0531 -1.4889 -9.8378
v  -0.3170 2.2129 -9.3352
v  -20.6871 4.9771 -8.6223
v  -3.7302 4.5692 -7.2613
v  -0.7039 3.2622 -8.4047
v  -20.6871 7.6204 -4.6664
v  -20.6871 8.5486 -0.0000
v  -3.1831 6.6088 -0.6626
v  -4.7571 5.7632 -3.5061
v  -20.6871 7.6204 4.6663
v  -0.3170 6.8166 1.6138
v  -20.6871 4.9771 8.6223
v  20.0531 1.9657 7.5296
v  20.0531 4.2740 4.0750
v  -20.6871 1.0212 11.2656
v  20.0531 -1.4889 9.8378
v  -20.6871 -3.6452 12.1938
v  20.0531 -5.5638 10.6484
v  -20.6871 -8.3116 11.2656
v  20.0531 -9.6388 9.8378
v  -20.6871 -12.2675 8.6223
v  20.0531 -13.0934 7.5296
v  -20.6871 -14.9108 4.6663
v  20.0531 -15.4017 4.0750
v  2.5490 3.8544 -7.6745
v  20.0531 1.9657 -7.5296
v  20.0531 5.0846 -0.0000
v  3.0961 5.8515 -1.2109
v  0.0698 6.7359 0.4100
v  4.1230 4.7216 -4.1962
v  20.0531 4.2740 -4.0750
v  -20.6871 -3.6452 0.0000
v  20.0531 -5.5638 -0.0000
v  0.7843 12.2020 -8.9298
v  4.7287 11.1619 -6.9989
v  3.9381 10.8080 -8.7367
v  2.3043 11.2351 -9.5420
v  0.2686 13.1426 -7.2464
v  1.0591 13.4968 -5.4917
v  2.6929 13.0569 -4.7054
v  4.2129 12.0898 -5.3347
# 52 vertices

vn -0.6691 -0.7432 0.0000
vn -0.6678 -0.6871 -0.2864
vn 0.6636 -0.6917 -0.2847
vn 0.6623 -0.7492 0.0000
vn -0.6640 -0.5266 -0.5309
vn 0.6674 -0.5288 -0.5244
vn -0.6583 -0.2843 -0.6970
vn 0.6730 -0.2868 -0.6818
vn -0.6515 0.0044 -0.7586
vn 0.6795 -0.0043 -0.7336
vn -0.6479 0.2915 -0.7037
vn 0.6888 0.2701 -0.6728
vn 0.0650 0.5669 -0.8212
vn -0.6442 0.5439 -0.5377
vn -0.2737 0.6734 -0.6868
vn -0.0341 0.4022 -0.9149
vn -0.6149 0.7278 -0.3038
vn -0.6332 0.7740 -0.0080
vn -0.2040 0.9785 -0.0297
vn -0.3053 0.9206 -0.2435
vn -0.6380 0.7106 0.2965
vn 0.0849 0.9875 0.1331
vn -0.6391 0.5461 0.5416
vn 0.6916 0.5086 0.5128
vn 0.6978 0.6598 0.2789
vn -0.6448 0.2963 0.7046
vn 0.6861 0.2747 0.6736
vn -0.6515 0.0044 0.7586
vn 0.6795 -0.0043 0.7336
vn -0.6583 -0.2843 0.6970
vn 0.6730 -0.2868 0.6818
vn -0.6640 -0.5266 0.5309
vn 0.6674 -0.5288 0.5244
vn -0.6678 -0.6871 0.2864
vn 0.6636 -0.6917 0.2847
vn 0.3644 0.3667 -0.8560
vn 0.6978 0.5042 -0.5087
vn 0.6946 0.7194 -0.0094
vn 0.4856 0.8718 0.0654
vn 0.1475 0.9251 0.3500
vn 0.6383 0.7291 -0.2468
vn 0.6763 0.6804 -0.2822
vn -1.0000 -0.0000 -0.0000
vn 1.0000 0.0000 -0.0000
vn -0.2387 0.6336 -0.7359
vn 0.9026 0.3687 -0.2223
vn 0.6967 0.2754 -0.6624
vn 0.2061 0.3639 -0.9084
vn -0.3916 0.8688 -0.3030
vn -0.1608 0.9712 0.1759
vn 0.3480 0.8550 0.3846
vn 0.7739 0.6015 0.1985
# 52 vertex normals

vt 0.7981 0.0237 -0.0000
vt 0.8600 0.0258 -0.0000
vt 0.8333 0.5537 -0.0000
vt 0.7797 0.5519 -0.0000
vt 0.9219 0.0278 -0.0000
vt 0.8869 0.5554 -0.0000
vt 0.9837 0.0299 -0.0000
vt 0.9407 0.5573 -0.0000
vt 0.0100 0.0459 -0.0000
vt 0.0710 0.0364 -0.0000
vt 0.1243 0.5632 -0.0000
vt 0.0710 0.5715 -0.0000
vt 0.1321 0.0278 -0.0000
vt 0.1777 0.5557 -0.0000
vt 0.1900 0.2873 -0.0000
vt 0.1934 0.0206 -0.0000
vt 0.2258 0.2389 -0.0000
vt 0.2075 0.2804 0.0000
vt 0.2543 0.0146 -0.0000
vt 0.3159 0.0114 -0.0000
vt 0.3150 0.2400 0.0000
vt 0.2752 0.2221 -0.0000
vt 0.3774 0.0100 -0.0000
vt 0.3467 0.2757 -0.0000
vt 0.4392 0.0104 -0.0000
vt 0.4453 0.5405 -0.0000
vt 0.3915 0.5401 -0.0000
vt 0.4980 0.0126 -0.0000
vt 0.5021 0.5424 -0.0000
vt 0.5548 0.0148 -0.0000
vt 0.5608 0.5442 -0.0000
vt 0.6135 0.0170 -0.0000
vt 0.6176 0.5461 -0.0000
vt 0.6743 0.0191 -0.0000
vt 0.6724 0.5479 -0.0000
vt 0.7362 0.0215 -0.0000
vt 0.7260 0.5500 -0.0000
vt 0.2239 0.3211 0.0000
vt 0.2312 0.5493 -0.0000
vt 0.3378 0.5416 -0.0000
vt 0.3110 0.3225 -0.0000
vt 0.3314 0.2814 -0.0000
vt 0.2708 0.3387 -0.0000
vt 0.2843 0.5449 -0.0000
vt 0.2666 0.6054 0.9999
vt 0.3393 0.5659 0.9999
vt 0.4022 0.7685 0.0366
vt 0.4216 0.5573 0.1989
vt 0.5010 0.5808 -0.1989
vt 0.5653 0.6329 -0.5664
vt 0.6047 0.7057 -0.8477
vt 0.6133 0.7880 -0.9999
vt 0.5898 0.8673 -0.9999
vt 0.5377 0.9316 -0.8477
vt 0.4650 0.9710 -0.5664
vt 0.3827 0.9797 -0.1989
vt 0.3034 0.9561 0.1989
vt 0.2391 0.9040 0.5664
vt 0.1996 0.8313 0.8477
vt 0.1910 0.7490 0.9999
vt 0.2145 0.6697 0.9999
vt 0.6374 0.7014 0.9999
vt 0.6764 0.6406 0.9999
vt 0.8098 0.7691 0.0867
vt 0.7357 0.5993 0.9999
vt 0.8063 0.5839 0.9999
vt 0.8774 0.5967 0.8477
vt 0.9383 0.6357 0.5664
vt 0.9795 0.6950 0.1989
vt 0.9949 0.7656 -0.1989
vt 0.9822 0.8367 -0.5664
vt 0.9432 0.8975 -0.8477
vt 0.8838 0.9388 -0.9999
vt 0.8132 0.9542 -0.9999
vt 0.7421 0.9415 -0.8477
vt 0.6813 0.9024 -0.5664
vt 0.6400 0.8431 -0.1989
vt 0.6246 0.7725 0.9999
vt 0.6820 0.9108 -0.0000
vt 0.5719 0.9135 -0.0000
vt 0.6041 0.8787 0.0000
vt 0.6497 0.8774 0.0000
vt 0.0171 0.6824 -0.0000
vt 0.0332 0.6221 -0.0000
vt 0.1615 0.6968 -0.0000
vt 0.1489 0.7246 -0.0000
vt 0.0637 0.5806 0.0000
vt 0.1767 0.6708 0.0000
vt 0.0955 0.9899 0.0000
vt 0.0683 0.9449 -0.0000
vt 0.1706 0.8629 -0.0000
vt 0.1918 0.8820 0.0000
vt 0.0513 0.8932 -0.0000
vt 0.1538 0.8388 -0.0000
vt 0.0395 0.8431 -0.0000
vt 0.1427 0.8107 -0.0000
vt 0.0283 0.7841 0.0000
vt 0.1382 0.7812 0.0000
vt 0.0101 0.7355 0.0000
vt 0.1408 0.7527 0.0000
vt 0.6820 0.9595 -0.0000
vt 0.6496 0.9947 0.0000
vt 0.6041 0.9954 -0.0000
vt 0.5719 0.9617 -0.0000
# 104 texture coords

o Environment_Log_Low
g Environment_Log_Low
usemtl Enviroment_Log_Low
s 1
f 1/1/1 2/2/2 3/3/3 4/4/4 
f 2/2/2 5/5/5 6/6/6 3/3/3 
f 5/5/5 7/7/7 8/8/8 6/6/6 
f 7/9/7 9/10/9 10/11/10 8/12/8 
f 9/10/9 11/13/11 12/14/12 10/11/10 
f 11/13/11 13/15/13 12/14/12 
f 14/16/14 15/17/15 16/18/16 13/15/13 
f 17/19/17 18/20/18 19/21/19 20/22/20 
f 18/20/18 21/23/21 22/24/22 
f 21/23/21 23/25/23 24/26/24 25/27/25 
f 23/25/23 26/28/26 27/29/27 24/26/24 
f 26/28/26 28/30/28 29/31/29 27/29/27 
f 28/30/28 30/32/30 31/33/31 29/31/29 
f 30/32/30 32/34/32 33/35/33 31/33/31 
f 32/34/32 34/36/34 35/37/35 33/35/33 
f 34/36/34 1/1/1 4/4/4 35/37/35 
f 16/18/16 36/38/36 37/39/37 13/15/13 
f 22/24/22 38/40/38 39/41/39 40/42/40 
f 14/16/14 17/19/17 20/22/20 15/17/15 
f 18/20/18 22/24/22 40/42/40 19/21/19 
f 36/38/36 41/43/41 42/44/42 37/39/37 
f 38/40/38 42/44/42 41/43/41 39/41/39 
s 16384
f 2/45/2 1/46/1 43/47/43 
f 1/46/1 34/48/34 43/47/43 
f 34/48/34 32/49/32 43/47/43 
f 32/49/32 30/50/30 43/47/43 
f 30/50/30 28/51/28 43/47/43 
f 28/51/28 26/52/26 43/47/43 
f 26/52/26 23/53/23 43/47/43 
f 23/53/23 21/54/21 43/47/43 
f 21/54/21 18/55/18 43/47/43 
f 18/55/18 17/56/17 43/47/43 
f 17/56/17 14/57/14 43/47/43 
f 14/57/14 11/58/11 43/47/43 
f 11/58/11 9/59/9 43/47/43 
f 9/59/9 7/60/7 43/47/43 
f 7/60/7 5/61/5 43/47/43 
f 5/61/5 2/45/2 43/47/43 
f 4/62/4 3/63/3 44/64/44 
f 3/63/3 6/65/6 44/64/44 
f 6/65/6 8/66/8 44/64/44 
f 8/66/8 10/67/10 44/64/44 
f 10/67/10 12/68/12 44/64/44 
f 12/68/12 37/69/37 44/64/44 
f 37/69/37 42/70/42 44/64/44 
f 42/70/42 38/71/38 44/64/44 
f 38/71/38 25/72/25 44/64/44 
f 25/72/25 24/73/24 44/64/44 
f 24/73/24 27/74/27 44/64/44 
f 27/74/27 29/75/29 44/64/44 
f 29/75/29 31/76/31 44/64/44 
f 31/76/31 33/77/33 44/64/44 
f 33/77/33 35/78/35 44/64/44 
f 35/78/35 4/62/4 44/64/44 
s 1
f 45/79/45 46/80/46 47/81/47 48/82/48 
s 134217728
f 15/83/15 20/84/20 49/85/49 45/86/45 
f 20/84/20 19/87/19 50/88/50 49/85/49 
f 19/89/19 40/90/40 51/91/51 50/92/50 
f 40/90/40 39/93/39 52/94/52 51/91/51 
f 39/93/39 41/95/41 46/96/46 52/94/52 
f 41/95/41 36/97/36 47/98/47 46/96/46 
f 36/97/36 16/99/16 48/100/48 47/98/47 
f 16/99/16 15/83/15 45/86/45 48/100/48 
s 1
f 21/23/21 25/27/25 22/24/22 
f 25/27/25 38/40/38 22/24/22 
f 11/13/11 14/16/14 13/15/13 
f 13/15/13 37/39/37 12/14/12 
f 45/79/45 49/101/49 50/102/50 46/80/46 
f 50/102/50 51/103/51 52/104/52 46/80/46 
# 31 polygons - 38 triangles

