# 3ds Max Wavefront OBJ Exporter v0.97b - (c)2007 guruware
# File Created: 06.08.2020 19:02:27

mtllib Environment_Fence_Plank005_Low.mtl

#
# object Environment_Fence_Plank005_Low
#

v  -4.3785 -26.2170 3.9083
v  -4.3785 -26.2170 -3.9083
v  4.3785 -26.2170 -3.9083
v  4.3785 -26.2170 3.9083
v  -4.3785 26.2170 3.9083
v  4.3785 26.2170 3.9083
v  4.3785 26.2170 -3.9083
v  -4.3785 26.2170 -3.9083
v  3.4717 0.0000 3.2658
v  -3.4717 0.0000 3.2658
v  3.4717 0.0000 -3.2658
v  -3.4717 0.0000 -3.2658
# 12 vertices

vn -0.5846 -0.5516 0.5949
vn -0.5846 -0.5516 -0.5949
vn 0.5846 -0.5516 -0.5949
vn 0.5846 -0.5516 0.5949
vn -0.5846 0.5516 0.5949
vn 0.5846 0.5516 0.5949
vn 0.5846 0.5516 -0.5949
vn -0.5846 0.5516 -0.5949
vn 0.7138 0.0000 0.7003
vn -0.7138 0.0000 0.7003
vn 0.7138 0.0000 -0.7003
vn -0.7138 0.0000 -0.7003
# 12 vertex normals

vt 0.4745 0.8228 0.0000
vt 0.4782 0.7055 0.0000
vt 0.5293 0.7078 0.0000
vt 0.5257 0.8238 0.0000
vt 0.8854 0.8303 0.0000
vt 0.8345 0.8289 0.0000
vt 0.8353 0.7132 0.0000
vt 0.8865 0.7129 0.0000
vt 0.5253 0.8709 0.0000
vt 0.6802 0.8246 0.0000
vt 0.6796 0.8696 0.0000
vt 0.6820 0.7234 0.0000
vt 0.5345 0.6578 0.0000
vt 0.6828 0.6825 0.0000
vt 0.5297 0.9863 0.0000
vt 0.6786 0.9697 0.0000
vt 0.8339 0.8748 0.0000
vt 0.8319 0.6632 0.0000
vt 0.8272 0.9895 0.0000
# 19 texture coords

o Environment_Fence_Plank005_Low
g Environment_Fence_Plank005_Low
usemtl Environment_Fence
s 1
f 1/1/1 2/2/2 3/3/3 4/4/4 
f 5/5/5 6/6/6 7/7/7 8/8/8 
s 2
f 1/9/1 4/4/4 9/10/9 10/11/10 
s 4
f 4/4/4 3/3/3 11/12/11 9/10/9 
s 2
f 3/3/3 2/13/2 12/14/12 11/12/11 
s 4
f 2/15/2 1/9/1 10/11/10 12/16/12 
s 2
f 9/10/9 6/6/6 5/17/5 10/11/10 
s 4
f 11/12/11 7/7/7 6/6/6 9/10/9 
s 2
f 12/14/12 8/18/8 7/7/7 11/12/11 
s 4
f 10/11/10 5/17/5 8/19/8 12/16/12 
# 10 polygons

