# 3ds Max Wavefront OBJ Exporter v0.97b - (c)2007 guruware
# File Created: 06.08.2020 19:01:32

mtllib Environment_Fence_Plank001_Low.mtl

#
# object Environment_Fence_Plank001_Low
#

v  -35.6185 0.8757 1.7603
v  -34.4114 -9.4175 1.7603
v  0.5057 -3.2287 1.4749
v  -0.5057 4.0386 1.4749
v  -34.4114 -9.4175 -1.7603
v  0.5057 -3.2287 -1.4749
v  -35.6185 0.8757 -1.7603
v  -0.5057 4.0386 -1.4749
v  35.6185 0.7441 1.7603
v  34.4114 9.4175 1.7603
v  35.6185 0.7441 -1.7603
v  34.4114 9.4175 -1.7603
# 12 vertices

vn -0.6290 0.5149 0.5825
vn -0.4833 -0.6551 0.5807
vn 0.1012 -0.6974 0.7095
vn -0.0851 0.6995 0.7096
vn -0.4833 -0.6551 -0.5807
vn 0.1012 -0.6974 -0.7095
vn -0.6290 0.5149 -0.5825
vn -0.0851 0.6995 -0.7096
vn 0.6402 -0.5008 0.5825
vn 0.4825 0.6536 0.5831
vn 0.6402 -0.5008 -0.5825
vn 0.4825 0.6536 -0.5831
# 12 vertex normals

vt 0.0699 0.9295 0.0000
vt 0.0100 0.9268 0.0000
vt 0.0329 0.7228 0.0000
vt 0.0759 0.7235 0.0000
vt 0.2341 0.9248 0.0000
vt 0.1818 0.9292 0.0000
vt 0.1648 0.7228 0.0000
vt 0.2093 0.7218 0.0000
vt 0.1224 0.9297 0.0000
vt 0.1212 0.7235 0.0000
vt 0.1226 0.9900 0.0000
vt 0.0698 0.9900 0.0000
vt 0.0193 0.5188 0.0000
vt 0.0699 0.5172 0.0000
vt 0.1724 0.5166 0.0000
vt 0.2248 0.5186 0.0000
vt 0.1223 0.5169 0.0000
vt 0.0697 0.4660 0.0000
vt 0.1226 0.4660 0.0000
# 19 texture coords

o Environment_Fence_Plank001_Low
g Environment_Fence_Plank001_Low
usemtl Environment_Fence
s 1
f 1/1/1 2/2/2 3/3/3 4/4/4 
s 2
f 2/5/2 5/6/5 6/7/6 3/8/3 
s 1
f 5/6/5 7/9/7 8/10/8 6/7/6 
s 2
f 7/9/7 1/1/1 4/4/4 8/10/8 
s 4
f 1/1/1 7/9/7 5/11/5 2/12/2 
s 1
f 3/3/3 9/13/9 10/14/10 4/4/4 
s 2
f 6/7/6 11/15/11 9/16/9 3/8/3 
s 1
f 8/10/8 12/17/12 11/15/11 6/7/6 
s 2
f 4/4/4 10/14/10 12/17/12 8/10/8 
s off
f 9/18/9 11/19/11 12/17/12 10/14/10 
# 10 polygons

