# 3ds Max Wavefront OBJ Exporter v0.97b - (c)2007 guruware
# File Created: 06.08.2020 19:01:42

mtllib Environment_Fence_Plank002_Low.mtl

#
# object Environment_Fence_Plank002_Low
#

v  -35.0015 7.2015 1.7603
v  -35.5080 -1.9784 1.7603
v  -0.2122 -3.2893 1.4749
v  0.2122 4.0357 1.4749
v  -35.5080 -1.9784 -1.7603
v  -0.2122 -3.2893 -1.4749
v  -35.0015 7.2015 -1.7603
v  0.2122 4.0357 -1.4749
v  35.0015 -7.2015 1.7603
v  35.5080 3.4712 1.7603
v  35.0015 -7.2015 -1.7603
v  35.5080 3.4712 -1.7603
# 12 vertices

vn -0.5296 0.6171 0.5820
vn -0.5984 -0.5497 0.5829
vn -0.0521 -0.7015 0.7108
vn 0.0371 0.7024 0.7108
vn -0.5984 -0.5497 -0.5829
vn -0.0521 -0.7015 -0.7108
vn -0.5296 0.6171 -0.5820
vn 0.0371 0.7024 -0.7108
vn 0.5262 -0.6214 0.5805
vn 0.5907 0.5587 0.5822
vn 0.5262 -0.6214 -0.5805
vn 0.5907 0.5587 -0.5822
# 12 vertex normals

vt 0.4606 0.9352 0.0000
vt 0.4072 0.9349 0.0000
vt 0.4102 0.7281 0.0000
vt 0.4540 0.7299 0.0000
vt 0.3586 0.9339 0.0000
vt 0.3675 0.7269 0.0000
vt 0.3053 0.9320 0.0000
vt 0.3232 0.7258 0.0000
vt 0.2529 0.9275 0.0000
vt 0.2785 0.7250 0.0000
vt 0.3029 0.9849 0.0000
vt 0.3565 0.9870 0.0000
vt 0.4232 0.5214 0.0000
vt 0.4837 0.5269 0.0000
vt 0.3734 0.5194 0.0000
vt 0.3121 0.5193 0.0000
vt 0.2599 0.5220 0.0000
vt 0.3746 0.4666 0.0000
vt 0.3122 0.4660 0.0000
# 19 texture coords

o Environment_Fence_Plank002_Low
g Environment_Fence_Plank002_Low
usemtl Environment_Fence
s 1
f 1/1/1 2/2/2 3/3/3 4/4/4 
s 2
f 2/2/2 5/5/5 6/6/6 3/3/3 
s 1
f 5/5/5 7/7/7 8/8/8 6/6/6 
s 2
f 7/7/7 1/9/1 4/10/4 8/8/8 
s 4
f 1/11/1 7/7/7 5/5/5 2/12/2 
s 1
f 3/3/3 9/13/9 10/14/10 4/4/4 
s 2
f 6/6/6 11/15/11 9/13/9 3/3/3 
s 1
f 8/8/8 12/16/12 11/15/11 6/6/6 
s 2
f 4/10/4 10/17/10 12/16/12 8/8/8 
s 4
f 9/18/9 11/15/11 12/16/12 10/19/10 
# 10 polygons

