# 3ds Max Wavefront OBJ Exporter v0.97b - (c)2007 guruware
# File Created: 24.07.2020 18:58:37

mtllib Low_Box.mtl

#
# object Low_Box
#

v  -10.0000 0.0000 10.0000
v  -10.0000 0.0000 -10.0000
v  10.0000 0.0000 -10.0000
v  10.0000 0.0000 10.0000
v  -10.0000 20.0000 10.0000
v  10.0000 20.0000 10.0000
v  10.0000 20.0000 -10.0000
v  -10.0000 20.0000 -10.0000
# 8 vertices

vn -0.5774 -0.5774 0.5774
vn -0.5774 -0.5774 -0.5774
vn 0.5774 -0.5774 -0.5774
vn 0.5774 -0.5774 0.5774
vn -0.5774 0.5774 0.5774
vn 0.5774 0.5774 0.5774
vn 0.5774 0.5774 -0.5774
vn -0.5774 0.5774 -0.5774
# 8 vertex normals

vt 0.4997 0.2614 0.0000
vt 0.7479 0.2614 0.0000
vt 0.7479 0.5096 0.0000
vt 0.4997 0.5096 0.0000
vt 0.2515 0.2614 0.0000
vt 0.2515 0.5096 0.0000
vt 0.0033 0.5096 0.0000
vt 0.0033 0.2614 0.0000
vt 0.4997 0.7578 0.0000
vt 0.2515 0.7578 0.0000
vt 0.9961 0.2614 0.0000
vt 0.9961 0.5096 0.0000
vt 0.4997 0.0132 0.0000
vt 0.2515 0.0132 0.0000
# 14 texture coords

o Low_Box
g Low_Box
usemtl Obstacle_Box
s 2
f 1/1/1 2/2/2 3/3/3 4/4/4 
s 4
f 5/5/5 6/6/6 7/7/7 8/8/8 
s 8
f 1/1/1 4/4/4 6/6/6 5/5/5 
s 16
f 4/4/4 3/9/3 7/10/7 6/6/6 
s 32
f 3/3/3 2/2/2 8/11/8 7/12/7 
s 64
f 2/13/2 1/1/1 5/5/5 8/14/8 
# 6 polygons

