# 3ds Max Wavefront OBJ Exporter v0.97b - (c)2007 guruware
# File Created: 24.07.2020 18:58:46

mtllib Low_Pyramid.mtl

#
# object Low_Pyramid
#

v  0.0000 20.0000 -0.0000
v  -10.0000 0.0000 10.0000
v  10.0000 0.0000 10.0000
v  10.0000 0.0000 -10.0000
v  -10.0000 0.0000 -10.0000
v  0.0000 0.0000 -0.0000
# 6 vertices

vn 0.0000 1.0000 -0.0000
vn -0.6626 -0.3491 0.6626
vn 0.6626 -0.3491 0.6626
vn 0.6626 -0.3491 -0.6626
vn -0.6626 -0.3491 -0.6626
vn 0.0000 -1.0000 -0.0000
# 6 vertex normals

vt 0.5000 0.9900 0.0000
vt 0.3367 0.6633 0.0000
vt 0.6633 0.6633 0.0000
vt 0.9900 0.5000 0.0000
vt 0.6633 0.3367 0.0000
vt 0.5000 0.0100 0.0000
vt 0.3367 0.3367 0.0000
vt 0.0100 0.5000 0.0000
vt 0.5000 0.5000 0.0000
# 9 texture coords

o Low_Pyramid
g Low_Pyramid
usemtl Obstacle_Pyramid
s 4
f 1/1/1 2/2/2 3/3/3 
s 2
f 1/4/1 3/3/3 4/5/4 
s 16
f 1/6/1 4/5/4 5/7/5 
s 32
f 1/8/1 5/7/5 2/2/2 
s 8
f 2/2/2 6/9/6 3/3/3 
f 3/3/3 6/9/6 4/5/4 
f 4/5/4 6/9/6 5/7/5 
f 5/7/5 6/9/6 2/2/2 
# 0 polygons - 8 triangles

