# 3ds Max Wavefront OBJ Exporter v0.97b - (c)2007 guruware
# File Created: 27.07.2020 13:06:31

mtllib Low_Ground003.mtl

#
# object Ground3
#

v  65.4932 0.0000 -75.9605
v  32.1511 0.0000 -73.4881
v  28.7659 0.0000 80.0136
v  44.4618 0.0000 62.5801
v  -15.4138 0.0000 -82.3568
v  -44.4385 0.0000 -43.4578
v  -35.0459 0.0000 70.4058
v  -23.1993 0.0000 62.4681
v  -61.3731 0.0000 -59.8656
v  -76.1521 0.0000 -48.2501
v  -64.0098 0.0000 72.7086
v  -57.2842 0.0000 60.7048
v  -89.2810 0.0000 -71.2834
v  -75.5521 0.0000 69.7755
v  -121.9638 0.0000 -77.0831
v  -93.4103 0.0000 74.2334
v  14.0517 0.0000 -89.2342
v  -3.1792 0.0000 80.0136
v  63.9251 0.0000 71.0016
v  98.0580 0.0000 63.3435
v  117.5727 0.0000 -68.5721
v  96.6637 0.0000 -73.0945
v  118.1755 0.0000 61.0628
v  135.3484 0.0000 64.5988
v  135.3485 0.0000 -64.5987
v  122.6560 0.0000 -57.1393
v  -135.3484 0.0000 -64.5989
v  -135.3484 0.0000 64.5987
v  135.3484 -147.6823 -43.5032
v  122.6560 -147.6823 -38.7859
v  -15.4138 -147.6823 -55.9910
v  -44.4385 -147.6823 -29.4516
v  -61.3731 -147.6823 -42.6903
v  -76.1521 -147.6823 -36.2718
v  -89.2810 -147.6823 -45.6817
v  -23.1992 -147.6823 42.8180
v  -3.1792 -147.6823 54.7887
v  -57.2841 -147.6823 41.6150
v  -35.0459 -147.6823 48.2336
v  -64.0098 -147.6823 49.8048
v  -135.3484 -147.6823 43.3576
v  -93.4103 -147.6823 50.8451
v  -121.9638 -147.6823 -52.3930
v  -75.5521 -147.6823 47.8036
v  65.4931 -147.6823 -51.6271
v  32.1511 -147.6823 -49.9402
v  14.0517 -147.6823 -60.6832
v  28.7659 -147.6823 54.7887
v  44.4618 -147.6823 42.8944
v  63.9252 -147.6823 48.6402
v  117.5726 -147.6823 -46.5862
v  96.6637 -147.6823 -49.6717
v  98.0580 -147.6823 43.4153
v  118.1755 -147.6823 41.8592
v  135.3484 -147.6823 43.3577
v  -135.3484 -147.6823 -43.5033
# 56 vertices

vn 0.0087 0.6067 -0.7949
vn 0.2436 0.7704 -0.5892
vn 0.3650 0.5438 0.7557
vn 0.1231 0.8595 0.4962
vn -0.4881 0.5643 -0.6658
vn -0.0296 0.9306 -0.3648
vn 0.0791 0.5284 0.8453
vn -0.0354 0.8718 0.4885
vn 0.0417 0.5184 -0.8541
vn 0.0689 0.9332 -0.3526
vn 0.3266 0.5160 0.7919
vn 0.1561 0.8915 0.4252
vn 0.5030 0.5530 -0.6642
vn -0.0019 0.7220 0.6919
vn -0.2533 0.5315 -0.8083
vn 0.0091 0.5717 0.8204
vn 0.2148 0.5166 -0.8288
vn -0.3233 0.5510 0.7694
vn -0.0889 0.5591 0.8243
vn 0.1569 0.6628 0.7322
vn 0.5420 0.5623 -0.6246
vn 0.1483 0.6174 -0.7725
vn -0.0410 0.6986 0.7143
vn -0.2066 0.5733 0.7929
vn -0.5342 0.4455 -0.7184
vn 0.1237 0.9209 -0.3697
vn -0.4604 0.7974 -0.3901
vn -0.1987 0.7022 0.6837
vn -0.4200 -0.1614 -0.8931
vn 0.2994 -0.1482 -0.9425
vn -0.5156 -0.1888 -0.8358
vn -0.0368 -0.1191 -0.9922
vn 0.1450 -0.1440 -0.9789
vn 0.1121 -0.1014 -0.9885
vn 0.4809 -0.1879 -0.8564
vn -0.0575 -0.1657 0.9845
vn -0.3252 -0.1998 0.9243
vn 0.2910 -0.1544 0.9442
vn 0.0850 -0.1859 0.9789
vn 0.4003 -0.1765 0.8992
vn -0.2170 -0.1748 0.9604
vn -0.0050 -0.1965 0.9805
vn -0.2299 -0.2014 -0.9521
vn -0.0018 -0.1850 0.9827
vn 0.0076 -0.2041 -0.9789
vn 0.2697 -0.1904 -0.9439
vn 0.2291 -0.2313 -0.9455
vn 0.3840 -0.1950 0.9025
vn 0.1892 -0.1633 0.9683
vn -0.0843 -0.1875 0.9786
vn 0.6166 -0.1457 -0.7737
vn 0.1298 -0.1951 -0.9722
vn 0.1412 -0.1666 0.9759
vn -0.0061 -0.1623 0.9867
vn -0.1080 -0.1780 0.9781
vn -0.6373 -0.1371 -0.7583
# 56 vertex normals

vt 0.1844 0.3171 0.0000
vt 0.2468 0.3151 0.0000
vt 0.2596 0.6982 0.0000
vt 0.2195 0.6758 0.0000
vt 0.3338 0.3151 0.0000
vt 0.4202 0.3668 0.0000
vt 0.4045 0.6738 0.0000
vt 0.3735 0.6758 0.0000
vt 0.4661 0.3525 0.0000
vt 0.5055 0.3639 0.0000
vt 0.4776 0.6770 0.0000
vt 0.4541 0.6611 0.0000
vt 0.5557 0.3362 0.0000
vt 0.4990 0.6806 0.0000
vt 0.6227 0.3303 0.0000
vt 0.5329 0.6896 0.0000
vt 0.2830 0.3007 0.0000
vt 0.3219 0.7010 0.0000
vt 0.1796 0.6799 0.0000
vt 0.1114 0.6635 0.0000
vt 0.0837 0.3306 0.0000
vt 0.1248 0.3229 0.0000
vt 0.0708 0.6551 0.0000
vt 0.0361 0.6563 0.0000
vt 0.0349 0.3385 0.0000
vt 0.0633 0.3453 0.0000
vt 0.6540 0.3434 0.0000
vt 0.6184 0.6822 0.0000
vt 0.0189 0.0452 0.0000
vt 0.0458 0.0397 0.0000
vt 0.3695 0.0292 0.0000
vt 0.4524 0.0495 0.0000
vt 0.4888 0.0627 0.0000
vt 0.5135 0.0553 0.0000
vt 0.5424 0.0452 0.0000
vt 0.3775 0.9827 0.0000
vt 0.3223 0.9900 0.0000
vt 0.4524 0.9701 0.0000
vt 0.4059 0.9700 0.0000
vt 0.4757 0.9721 0.0000
vt 0.6245 0.9853 0.0000
vt 0.5377 0.9830 0.0000
vt 0.6102 0.0387 0.0000
vt 0.4997 0.9809 0.0000
vt 0.1777 0.0181 0.0000
vt 0.2502 0.0100 0.0000
vt 0.3031 0.0128 0.0000
vt 0.2493 0.9894 0.0000
vt 0.1999 0.9835 0.0000
vt 0.1548 0.9720 0.0000
vt 0.0674 0.0345 0.0000
vt 0.1114 0.0250 0.0000
vt 0.0835 0.9624 0.0000
vt 0.0437 0.9553 0.0000
vt 0.0100 0.9511 0.0000
vt 0.6457 0.0344 0.0000
# 56 texture coords

o Ground3
g Ground3
usemtl wire_145028177
s 1
f 1/1/1 2/2/2 3/3/3 4/4/4 
f 5/5/5 6/6/6 7/7/7 8/8/8 
f 9/9/9 10/10/10 11/11/11 12/12/12 
f 10/10/10 13/13/13 14/14/14 11/11/11 
f 13/13/13 15/15/15 16/16/16 14/14/14 
f 6/6/6 9/9/9 12/12/12 7/7/7 
f 17/17/17 5/5/5 8/8/8 18/18/18 
f 2/2/2 17/17/17 18/18/18 3/3/3 
f 19/19/19 20/20/20 21/21/21 22/22/22 
f 23/23/23 24/24/24 25/25/25 26/26/26 
f 20/20/20 23/23/23 26/26/26 21/21/21 
f 22/22/22 1/1/1 4/4/4 19/19/19 
f 15/15/15 27/27/27 28/28/28 16/16/16 
s 2
f 26/26/26 25/25/25 29/29/29 30/30/30 
f 6/6/6 5/5/5 31/31/31 32/32/32 
f 10/10/10 9/9/9 33/33/33 34/34/34 
s 4
f 13/13/13 10/10/10 34/34/34 35/35/35 
s 2
f 18/18/18 8/8/8 36/36/36 37/37/37 
f 7/7/7 12/12/12 38/38/38 39/39/39 
s 4
f 12/12/12 11/11/11 40/40/40 38/38/38 
s 2
f 16/16/16 28/28/28 41/41/41 42/42/42 
f 15/15/15 13/13/13 35/35/35 43/43/43 
f 11/11/11 14/14/14 44/44/44 40/40/40 
s 4
f 9/9/9 6/6/6 32/32/32 33/33/33 
f 8/8/8 7/7/7 39/39/39 36/36/36 
s 2
f 2/2/2 1/1/1 45/45/45 46/46/46 
s 4
f 17/17/17 2/2/2 46/46/46 47/47/47 
s 8
f 5/5/5 17/17/17 47/47/47 31/31/31 
s 4
f 3/3/3 18/18/18 37/37/37 48/48/48 
s 2
f 4/4/4 3/3/3 48/48/48 49/49/49 
s 4
f 19/19/19 4/4/4 49/49/49 50/50/50 
f 21/21/21 26/26/26 30/30/30 51/51/51 
s 2
f 22/22/22 21/21/21 51/51/51 52/52/52 
s 4
f 1/1/1 22/22/22 52/52/52 45/45/45 
s 2
f 20/20/20 19/19/19 50/50/50 53/53/53 
s 4
f 23/23/23 20/20/20 53/53/53 54/54/54 
s 2
f 24/24/24 23/23/23 54/54/54 55/55/55 
s 4
f 14/14/14 16/16/16 42/42/42 44/44/44 
f 27/27/27 15/15/15 43/43/43 56/56/56 
# 39 polygons

