# 3ds Max Wavefront OBJ Exporter v0.97b - (c)2007 guruware
# File Created: 06.08.2020 18:49:13

mtllib Background_Hill001.mtl

#
# object Environment_Hill_Low
#

v  133.1778 -23.3620 -0.0000
v  111.6199 -23.3620 -73.4198
v  91.5376 3.2011 -61.5204
v  109.7107 3.2208 -0.0000
v  53.7904 -23.3620 -123.5293
v  42.9586 3.1488 -103.2411
v  -21.9501 -23.3620 -134.4191
v  -20.2873 3.0812 -111.9584
v  -91.5545 -23.3620 -102.6318
v  -78.0258 3.0201 -85.2109
v  -132.9240 -23.3620 -38.2596
v  -112.1670 2.9842 -31.7049
v  -132.9240 -23.3620 38.2597
v  -112.1670 2.9842 31.7049
v  -91.5545 -23.3620 102.6319
v  -78.0258 3.0201 85.2110
v  -21.9500 -23.3620 134.4192
v  -20.2872 3.0812 111.9584
v  53.7904 -23.3620 123.5293
v  42.9586 3.1488 103.2411
v  111.6199 -23.3620 73.4198
v  91.5376 3.2011 61.5204
v  50.1935 21.4605 34.9485
v  50.1935 21.4605 -34.9485
v  14.1440 21.4605 -40.1403
v  14.1440 21.4605 40.1403
v  -10.4675 21.4605 -43.6789
v  -10.4675 21.4605 43.6789
v  -33.0852 21.4605 -33.3497
v  -33.0852 21.4605 33.3498
v  -66.2117 21.4605 -18.2120
v  -66.2117 21.4605 18.2120
v  64.3317 21.4605 -0.0000
v  60.1719 19.0090 -41.3612
v  77.9064 20.6068 -0.0000
v  25.1344 17.9603 -64.2058
v  -14.2197 17.9539 -69.7763
v  -50.2961 17.9483 -53.2123
v  -77.3406 19.0121 -21.4797
v  -77.3405 19.0121 21.4797
v  -50.2961 17.9483 53.2123
v  -14.2197 17.9539 69.7763
v  25.1344 17.9603 64.2058
v  60.1719 19.0090 41.3612
v  63.7257 -70.0553 145.2845
v  131.7397 -70.0553 86.3500
v  -25.3537 -70.0553 158.0922
v  -107.2165 -70.0553 120.7068
v  -155.8718 -70.0553 44.9978
v  -155.8718 -70.0553 -44.9977
v  -107.2166 -70.0553 -120.7067
v  -25.3538 -70.0553 -158.0922
v  63.7257 -70.0553 -145.2845
v  131.7397 -70.0553 -86.3500
v  157.0944 -70.0553 -0.0000
v  85.5513 -167.1154 193.0758
v  175.9385 -167.1154 114.7548
v  -32.8308 -167.1154 210.0966
v  -141.6223 -167.1154 160.4133
v  -206.2827 -167.1154 59.7997
v  -206.2827 -167.1154 -59.7997
v  -141.6224 -167.1154 -160.4132
v  -32.8309 -167.1154 -210.0967
v  85.5513 -167.1154 -193.0759
v  175.9385 -167.1154 -114.7549
v  209.6336 -167.1154 -0.0000
# 66 vertices

vn 0.8618 0.5073 0.0000
vn 0.7261 0.5063 -0.4652
vn 0.5467 0.7574 -0.3570
vn 0.6855 0.7281 -0.0000
vn 0.3608 0.5037 -0.7849
vn 0.2551 0.7753 -0.5778
vn -0.1209 0.5002 -0.8574
vn -0.0993 0.7712 -0.6288
vn -0.5669 0.4969 -0.6570
vn -0.4249 0.7674 -0.4801
vn -0.8335 0.4949 -0.2455
vn -0.6435 0.7425 -0.1863
vn -0.8335 0.4949 0.2455
vn -0.6435 0.7425 0.1863
vn -0.5669 0.4969 0.6570
vn -0.4249 0.7674 0.4801
vn -0.1209 0.5002 0.8574
vn -0.0993 0.7712 0.6288
vn 0.3608 0.5037 0.7849
vn 0.2551 0.7753 0.5778
vn 0.7261 0.5063 0.4652
vn 0.5467 0.7574 0.3570
vn 0.0800 0.9847 0.1547
vn 0.0800 0.9847 -0.1547
vn 0.0110 0.9970 -0.0767
vn 0.0110 0.9970 0.0767
vn -0.0126 0.9961 -0.0874
vn -0.0126 0.9961 0.0874
vn -0.0325 0.9969 -0.0712
vn -0.0325 0.9969 0.0712
vn -0.1286 0.9842 -0.1219
vn -0.1286 0.9842 0.1219
vn 0.0443 0.9990 -0.0000
vn 0.2488 0.9333 -0.2590
vn 0.3593 0.9332 0.0000
vn 0.0818 0.9615 -0.2623
vn -0.0406 0.9602 -0.2763
vn -0.1557 0.9602 -0.2317
vn -0.3373 0.9304 -0.1434
vn -0.3373 0.9304 0.1434
vn -0.1557 0.9602 0.2317
vn -0.0406 0.9602 0.2763
vn 0.0818 0.9615 0.2623
vn 0.2488 0.9333 0.2590
vn 0.3766 0.4219 0.8247
vn 0.7627 0.4219 0.4902
vn -0.1290 0.4219 0.8974
vn -0.5937 0.4219 0.6852
vn -0.8699 0.4219 0.2554
vn -0.8699 0.4219 -0.2554
vn -0.5937 0.4219 -0.6852
vn -0.1290 0.4219 -0.8974
vn 0.3766 0.4219 -0.8247
vn 0.7627 0.4219 -0.4902
vn 0.9067 0.4219 0.0000
vn 0.3749 0.4307 0.8209
vn 0.7592 0.4307 0.4879
vn -0.1284 0.4307 0.8933
vn -0.5910 0.4307 0.6821
vn -0.8659 0.4307 0.2543
vn -0.8659 0.4307 -0.2543
vn -0.5910 0.4307 -0.6821
vn -0.1284 0.4307 -0.8933
vn 0.3749 0.4307 -0.8209
vn 0.7592 0.4307 -0.4879
vn 0.9025 0.4307 -0.0000
# 66 vertex normals

vt 0.3173 0.6135 0.0000
vt 0.2843 0.4934 0.0000
vt 0.3313 0.4926 0.0000
vt 0.3581 0.5889 0.0000
vt 0.3213 0.3745 0.0000
vt 0.3611 0.3981 0.0000
vt 0.4167 0.2945 0.0000
vt 0.4367 0.3350 0.0000
vt 0.5403 0.2808 0.0000
vt 0.5343 0.3261 0.0000
vt 0.6520 0.3352 0.0000
vt 0.6219 0.3694 0.0000
vt 0.7171 0.4411 0.0000
vt 0.6732 0.4530 0.0000
vt 0.7152 0.5655 0.0000
vt 0.6724 0.5509 0.0000
vt 0.6470 0.6698 0.0000
vt 0.6203 0.6343 0.0000
vt 0.5322 0.7189 0.0000
vt 0.5295 0.6733 0.0000
vt 0.4092 0.6979 0.0000
vt 0.4315 0.6569 0.0000
vt 0.4668 0.5920 0.0000
vt 0.4056 0.4916 0.0000
vt 0.4502 0.4557 0.0000
vt 0.5191 0.5685 0.0000
vt 0.4765 0.4317 0.0000
vt 0.5524 0.5558 0.0000
vt 0.5129 0.4304 0.0000
vt 0.5701 0.5238 0.0000
vt 0.5714 0.4236 0.0000
vt 0.6026 0.4745 0.0000
vt 0.4189 0.5523 0.0000
vt 0.3906 0.4929 0.0000
vt 0.4035 0.5615 0.0000
vt 0.4175 0.4351 0.0000
vt 0.4624 0.3961 0.0000
vt 0.5219 0.3923 0.0000
vt 0.5822 0.4127 0.0000
vt 0.6170 0.4695 0.0000
vt 0.6080 0.5327 0.0000
vt 0.5777 0.5842 0.0000
vt 0.5225 0.6067 0.0000
vt 0.4587 0.6045 0.0000
vt 0.5411 0.7947 0.0000
vt 0.3753 0.7668 0.0000
vt 0.6956 0.7282 0.0000
vt 0.7887 0.5883 0.0000
vt 0.7917 0.4205 0.0000
vt 0.7039 0.2775 0.0000
vt 0.5530 0.2045 0.0000
vt 0.3864 0.2243 0.0000
vt 0.2574 0.3317 0.0000
vt 0.2071 0.4918 0.0000
vt 0.2511 0.6538 0.0000
vt 0.5648 0.9900 0.0000
vt 0.2894 0.9441 0.0000
vt 0.8213 0.8793 0.0000
vt 0.9766 0.6473 0.0000
vt 0.9819 0.3685 0.0000
vt 0.8360 0.1311 0.0000
vt 0.5851 0.0100 0.0000
vt 0.3084 0.0436 0.0000
vt 0.0939 0.2218 0.0000
vt 0.0100 0.4876 0.0000
vt 0.0828 0.7567 0.0000
# 66 texture coords

o Environment_Hill_Low
g Environment_Hill_Low
usemtl wire_141007058
s 1
f 1/1/1 2/2/2 3/3/3 4/4/4 
f 2/2/2 5/5/5 6/6/6 3/3/3 
f 5/5/5 7/7/7 8/8/8 6/6/6 
f 7/7/7 9/9/9 10/10/10 8/8/8 
f 9/9/9 11/11/11 12/12/12 10/10/10 
f 11/11/11 13/13/13 14/14/14 12/12/12 
f 13/13/13 15/15/15 16/16/16 14/14/14 
f 15/15/15 17/17/17 18/18/18 16/16/16 
f 17/17/17 19/19/19 20/20/20 18/18/18 
f 19/19/19 21/21/21 22/22/22 20/20/20 
f 21/21/21 1/1/1 4/4/4 22/22/22 
f 23/23/23 24/24/24 25/25/25 26/26/26 
f 25/25/25 27/27/27 28/28/28 26/26/26 
f 27/27/27 29/29/29 30/30/30 28/28/28 
f 29/29/29 31/31/31 32/32/32 30/30/30 
f 23/23/23 33/33/33 24/24/24 
f 4/4/4 3/3/3 34/34/34 35/35/35 
f 3/3/3 6/6/6 36/36/36 34/34/34 
f 6/6/6 8/8/8 37/37/37 36/36/36 
f 8/8/8 10/10/10 38/38/38 37/37/37 
f 10/10/10 12/12/12 39/39/39 38/38/38 
f 12/12/12 14/14/14 40/40/40 39/39/39 
f 14/14/14 16/16/16 41/41/41 40/40/40 
f 16/16/16 18/18/18 42/42/42 41/41/41 
f 18/18/18 20/20/20 43/43/43 42/42/42 
f 20/20/20 22/22/22 44/44/44 43/43/43 
f 22/22/22 4/4/4 35/35/35 44/44/44 
f 25/25/25 24/24/24 34/34/34 36/36/36 
f 23/23/23 26/26/26 43/43/43 44/44/44 
f 27/27/27 25/25/25 36/36/36 37/37/37 
f 26/26/26 28/28/28 42/42/42 43/43/43 
f 29/29/29 27/27/27 37/37/37 38/38/38 
f 28/28/28 30/30/30 41/41/41 42/42/42 
f 31/31/31 29/29/29 38/38/38 39/39/39 
f 32/32/32 31/31/31 39/39/39 40/40/40 
f 30/30/30 32/32/32 40/40/40 41/41/41 
f 33/33/33 23/23/23 44/44/44 35/35/35 
f 24/24/24 33/33/33 35/35/35 34/34/34 
f 21/21/21 19/19/19 45/45/45 46/46/46 
f 19/19/19 17/17/17 47/47/47 45/45/45 
f 17/17/17 15/15/15 48/48/48 47/47/47 
f 15/15/15 13/13/13 49/49/49 48/48/48 
f 13/13/13 11/11/11 50/50/50 49/49/49 
f 11/11/11 9/9/9 51/51/51 50/50/50 
f 9/9/9 7/7/7 52/52/52 51/51/51 
f 7/7/7 5/5/5 53/53/53 52/52/52 
f 5/5/5 2/2/2 54/54/54 53/53/53 
f 2/2/2 1/1/1 55/55/55 54/54/54 
f 1/1/1 21/21/21 46/46/46 55/55/55 
f 46/46/46 45/45/45 56/56/56 57/57/57 
f 45/45/45 47/47/47 58/58/58 56/56/56 
f 47/47/47 48/48/48 59/59/59 58/58/58 
f 48/48/48 49/49/49 60/60/60 59/59/59 
f 49/49/49 50/50/50 61/61/61 60/60/60 
f 50/50/50 51/51/51 62/62/62 61/61/61 
f 51/51/51 52/52/52 63/63/63 62/62/62 
f 52/52/52 53/53/53 64/64/64 63/63/63 
f 53/53/53 54/54/54 65/65/65 64/64/64 
f 54/54/54 55/55/55 66/66/66 65/65/65 
f 55/55/55 46/46/46 57/57/57 66/66/66 
# 59 polygons - 1 triangles

