# 3ds Max Wavefront OBJ Exporter v0.97b - (c)2007 guruware
# File Created: 23.07.2020 13:30:00

mtllib Dino_Right_Leg.mtl

#
# object Dino_Right_Leg
#

v  2.4463 0.0000 12.4220
v  2.4463 0.0000 4.8170
v  5.1122 0.0000 4.8170
v  5.1122 0.0000 12.4220
v  -2.5793 30.6784 10.8387
v  -0.6342 30.6784 10.8387
v  -0.6342 32.2583 6.7825
v  -2.5793 32.2583 6.7825
v  0.7401 1.8174 12.5822
v  5.1122 1.7594 12.5822
v  2.1045 3.5075 12.5822
v  -0.9661 3.6348 5.9786
v  -0.9661 3.6348 11.8673
v  -0.7460 7.1185 11.2604
v  -0.7460 7.1185 7.2708
v  0.7401 1.8174 5.2051
v  1.4301 3.9533 5.2573
v  2.5858 2.5650 5.0093
v  3.0332 5.9354 11.2604
v  4.0727 4.7270 11.2604
v  4.0727 4.7270 5.9786
v  3.0332 5.9354 6.6376
v  1.1436 6.5269 11.2604
v  2.4962 10.0527 10.9528
v  1.1242 10.4822 10.2979
v  4.4453 9.6232 8.8734
v  4.4453 9.6232 10.0664
v  1.1436 6.5269 6.6376
v  3.3096 10.0527 7.9498
v  1.1242 10.4822 8.3502
v  4.8616 15.4399 11.6861
v  1.4806 15.8694 11.4393
v  8.2425 15.0103 7.7296
v  8.2425 15.0103 10.9550
v  4.8616 15.4399 7.7296
v  1.4806 15.8694 7.7296
v  10.1796 18.6150 11.5951
v  10.0978 22.2197 11.5951
v  1.8049 22.4345 13.3402
v  4.5555 18.9372 12.7939
v  10.1796 18.6150 7.1651
v  10.0978 22.2197 6.7825
v  -1.8425 18.8446 7.1651
v  -4.5894 21.7265 6.7825
v  2.7542 22.4345 6.7825
v  4.5555 18.9372 7.1651
v  -1.8425 18.8446 11.5515
v  -4.5894 21.7265 11.5515
v  8.4680 25.8244 11.5951
v  4.3247 29.4291 11.1274
v  -0.6342 29.4291 11.5212
v  0.0000 25.9318 12.8795
v  8.4680 25.8244 6.7825
v  4.3247 29.4291 6.7825
v  -6.9289 26.0392 6.7825
v  -5.5932 29.4291 6.7825
v  -0.6342 29.4291 6.7825
v  0.7696 25.9318 6.7825
v  -6.9289 26.0392 11.3749
v  -5.5932 29.4291 10.8387
v  1.3108 32.2583 6.7825
v  1.3108 30.6784 10.8387
v  5.1122 3.5187 11.2604
v  5.1122 3.5187 5.9786
v  1.5848 5.1407 11.8673
v  5.1122 1.7594 5.0093
v  7.0726 0.0000 4.8170
v  7.0726 0.0000 12.4220
v  7.0726 3.5187 11.2604
v  7.0726 3.5187 5.9786
v  7.9492 1.7594 12.5822
v  7.9492 1.7594 4.6567
v  7.0726 -0.0000 12.4220
v  7.0726 -0.0000 10.1342
v  12.0539 0.0013 10.9307
v  7.0726 3.5109 10.1070
v  7.0726 3.5266 11.2604
v  7.9492 1.7594 9.9577
v  7.0726 -0.0000 4.8170
v  12.0539 0.0013 6.3083
v  7.0726 -0.0000 7.1048
v  7.0726 3.5109 7.1320
v  7.0726 3.5266 5.9786
v  7.9492 1.7594 7.2813
v  9.1155 -0.0057 7.4186
v  9.1051 -0.0057 9.7513
v  6.4239 4.0221 9.6544
v  7.8935 3.4301 9.3828
v  7.9039 3.4301 7.7844
v  6.4374 4.0221 7.5786
v  7.9257 2.0007 7.2813
v  9.1975 1.5409 7.5545
v  9.1766 1.2201 9.6154
v  7.8986 1.5841 9.9577
v  7.0793 3.5187 7.5746
v  8.5458 2.7097 7.7804
v  8.5354 2.7097 9.3788
v  7.0658 3.5187 9.6504
v  13.4553 0.0013 8.4694
v  4.7462 3.4212 9.6465
v  4.7598 3.4212 7.5707
# 101 vertices

vn -0.3063 -0.7435 0.5945
vn -0.3199 -0.6374 -0.7010
vn 0.0000 -0.6676 -0.7445
vn 0.0000 -0.7385 0.6743
vn -0.1251 0.5988 0.7911
vn 0.0000 0.7511 0.6602
vn 0.0000 0.8255 -0.5644
vn -0.2965 0.8154 -0.4973
vn -0.5390 -0.4125 0.7344
vn 0.0458 0.2141 0.9757
vn -0.0150 0.2875 0.9577
vn -0.8273 -0.1435 -0.5432
vn -0.7895 -0.1748 0.5883
vn -0.6791 0.3245 0.6584
vn -0.7619 0.3767 -0.5269
vn -0.6257 -0.3474 -0.6984
vn -0.0789 0.2653 -0.9609
vn 0.0123 0.0925 -0.9956
vn 0.5801 0.3350 0.7424
vn 0.6566 0.5649 0.4998
vn 0.4868 0.6156 -0.6197
vn 0.5472 0.5328 -0.6455
vn 0.0815 0.2604 0.9621
vn -0.0139 -0.0145 0.9998
vn -0.8195 0.2501 0.5156
vn 0.8415 -0.3915 -0.3723
vn 0.7705 -0.3895 0.5046
vn -0.0460 0.4245 -0.9043
vn 0.2885 0.0080 -0.9575
vn -0.7229 0.2819 -0.6309
vn 0.0607 -0.2335 0.9705
vn -0.5407 -0.3385 0.7701
vn 0.5780 -0.4702 -0.6669
vn 0.6485 -0.4947 0.5785
vn -0.0128 -0.1004 -0.9949
vn -0.5203 -0.3665 -0.7713
vn 0.7731 -0.2181 0.5956
vn 0.7868 0.1755 0.5917
vn -0.0308 -0.0331 0.9990
vn 0.0467 -0.1870 0.9812
vn 0.7238 -0.2403 -0.6468
vn 0.7211 0.1270 -0.6811
vn -0.4723 -0.5817 -0.6623
vn -0.5791 -0.4457 -0.6827
vn 0.0026 -0.0510 -0.9987
vn -0.0034 -0.1346 -0.9909
vn -0.5555 -0.5741 0.6015
vn -0.6708 -0.4647 0.5780
vn 0.6365 0.4791 0.6044
vn 0.4000 0.7058 0.5847
vn -0.0319 0.4167 0.9085
vn -0.0479 0.2222 0.9738
vn 0.6013 0.4474 -0.6621
vn 0.4712 0.5214 -0.7114
vn -0.7806 -0.0476 -0.6232
vn -0.6209 0.4213 -0.6610
vn 0.0000 0.0000 -1.0000
vn -0.8219 -0.0088 0.5695
vn -0.5890 0.6117 0.5281
vn 0.2965 0.8154 -0.4973
vn 0.1112 0.6841 0.7208
vn 0.4170 0.7844 0.4592
vn 0.3980 0.7428 -0.5383
vn -0.0327 0.3921 0.9194
vn -0.0168 0.2859 -0.9581
vn 0.4184 -0.7051 -0.5725
vn 0.4184 -0.7051 0.5725
vn 0.4338 0.8306 0.3493
vn 0.4338 0.8306 -0.3493
vn 0.7257 0.1272 0.6762
vn 0.6918 0.1315 -0.7100
vn 0.1696 -0.8069 0.5658
vn 0.0901 -0.8222 -0.5620
vn 0.9570 -0.2846 -0.0563
vn 0.5825 0.7578 -0.2939
vn 0.5755 0.7953 0.1906
vn 0.4656 0.3074 0.8299
vn 0.2597 0.0735 -0.9629
vn 0.1696 -0.8069 -0.5658
vn 0.9570 -0.2846 0.0563
vn 0.0901 -0.8222 0.5620
vn 0.5825 0.7578 0.2939
vn 0.5755 0.7953 -0.1906
vn 0.4656 0.3074 -0.8299
vn 0.2597 0.0735 0.9629
vn 0.0952 -0.7676 -0.6338
vn 0.1418 -0.6706 -0.7281
vn 0.1730 -0.6622 0.7291
vn 0.1126 -0.7846 0.6097
vn 0.0248 0.7670 0.6412
vn 0.5231 0.6780 0.5164
vn 0.5077 0.6701 -0.5415
vn 0.0257 0.7736 -0.6331
vn 0.2762 0.2061 -0.9388
vn 0.2779 0.2120 -0.9369
vn 0.3035 0.1869 0.9343
vn 0.2945 0.1460 0.9444
vn 0.3181 0.4030 -0.8581
vn 0.5348 0.6315 -0.5614
vn 0.5476 0.5994 0.5838
vn 0.3594 0.4305 0.8279
vn 0.9734 -0.2282 -0.0204
vn -0.3320 0.9245 0.1872
vn -0.3302 0.9245 -0.1903
# 104 vertex normals

vt 0.3201 0.6921 0.0000
vt 0.2174 0.7825 0.0000
vt 0.1689 0.7099 0.0000
vt 0.3004 0.6650 0.0000
vt 0.9023 0.6680 0.0000
vt 0.8983 0.6303 0.0000
vt 0.9774 0.6164 0.0000
vt 0.9824 0.6728 0.0000
vt 0.3514 0.7008 0.0000
vt 0.3257 0.6480 0.0000
vt 0.3740 0.6690 0.0000
vt 0.3683 0.8213 0.0000
vt 0.3774 0.7154 0.0000
vt 0.4324 0.7082 0.0000
vt 0.4490 0.7806 0.0000
vt 0.8253 0.9733 0.0000
vt 0.7883 0.9926 0.0000
vt 0.7964 0.9547 0.0000
vt 0.8215 0.9424 0.0000
vt 0.2897 0.8212 0.0000
vt 0.4071 0.6309 0.0000
vt 0.3746 0.6207 0.0000
vt 0.3584 0.5229 0.0000
vt 0.3987 0.5408 0.0000
vt 0.4256 0.6701 0.0000
vt 0.4938 0.6524 0.0000
vt 0.5031 0.6882 0.0000
vt 0.4729 0.5851 0.0000
vt 0.4821 0.6068 0.0000
vt 0.7666 0.9218 0.0000
vt 0.7513 0.9480 0.0000
vt 0.7016 0.9001 0.0000
vt 0.7124 0.8809 0.0000
vt 0.5080 0.7270 0.0000
vt 0.5971 0.6090 0.0000
vt 0.6141 0.6792 0.0000
vt 0.5483 0.4861 0.0000
vt 0.5843 0.5374 0.0000
vt 0.6244 0.8564 0.0000
vt 0.6421 0.8068 0.0000
vt 0.5972 0.7506 0.0000
vt 0.6440 0.4991 0.0000
vt 0.6989 0.4843 0.0000
vt 0.7377 0.6320 0.0000
vt 0.6640 0.6023 0.0000
vt 0.6152 0.4255 0.0000
vt 0.7002 0.3979 0.0000
vt 0.5475 0.9455 0.0000
vt 0.4931 0.9765 0.0000
vt 0.5090 0.8626 0.0000
vt 0.5691 0.8481 0.0000
vt 0.6941 0.7205 0.0000
vt 0.7622 0.7490 0.0000
vt 0.7529 0.8347 0.0000
vt 0.6693 0.7980 0.0000
vt 0.7623 0.4957 0.0000
vt 0.8464 0.5481 0.0000
vt 0.8742 0.6352 0.0000
vt 0.8061 0.6424 0.0000
vt 0.7967 0.4175 0.0000
vt 0.8997 0.4897 0.0000
vt 0.4189 0.9962 0.0000
vt 0.3722 0.9635 0.0000
vt 0.3902 0.8884 0.0000
vt 0.4485 0.8799 0.0000
vt 0.5940 0.7640 0.0000
vt 0.8433 0.7584 0.0000
vt 0.8894 0.7244 0.0000
vt 0.9459 0.7663 0.0000
vt 0.8712 0.8286 0.0000
vt 0.9608 0.5635 0.0000
vt 0.8863 0.5942 0.0000
vt 0.4083 0.8132 0.0000
vt 0.3473 0.8780 0.0000
vt 0.3544 0.8485 0.0000
vt 0.7321 0.9741 0.0000
vt 0.6860 0.9320 0.0000
vt 0.6057 0.9060 0.0000
vt 0.5387 0.7520 0.0000
vt 0.4781 0.7636 0.0000
vt 0.3402 0.9075 0.0000
vt 0.7910 0.9114 0.0000
vt 0.3434 0.6151 0.0000
vt 0.3111 0.5210 0.0000
vt 0.4009 0.6658 0.0000
vt 0.8118 0.8990 0.0000
vt 0.8422 0.9066 0.0000
vt 0.8691 0.9134 0.0000
vt 0.8597 0.9537 0.0000
vt 0.1558 0.6357 0.0000
vt 0.2901 0.6490 0.0000
vt 0.3078 0.6107 0.0000
vt 0.2506 0.5350 0.0000
vt 0.2951 0.6319 0.0000
vt 0.8547 0.8636 0.0000
vt 0.8772 0.8842 0.0000
vt 0.8185 0.8695 0.0000
vt 0.1779 0.5632 0.0000
vt 0.0036 0.5604 0.0000
vt 0.0506 0.5586 0.0000
vt 0.0383 0.6617 0.0000
vt 0.1238 0.5684 0.0000
vt 0.1391 0.5865 0.0000
vt 0.1325 0.6349 0.0000
vt 0.1446 0.6737 0.0000
vt 0.0851 0.5801 0.0000
vt 0.1235 0.8117 0.0000
vt 0.0228 0.7753 0.0000
vt 0.1261 0.7647 0.0000
vt 0.1175 0.6913 0.0000
vt 0.0996 0.6756 0.0000
vt 0.0510 0.6814 0.0000
vt 0.0124 0.6688 0.0000
vt 0.1052 0.7298 0.0000
vt 0.2269 0.7863 0.0000
vt 0.2233 0.8286 0.0000
vt 0.1752 0.8317 0.0000
vt 0.1623 0.7911 0.0000
vt 0.0771 0.8157 0.0000
vt 0.1009 0.8360 0.0000
vt 0.0849 0.8637 0.0000
vt 0.0561 0.8521 0.0000
vt 0.0866 0.8937 0.0000
vt 0.1147 0.8990 0.0000
vt 0.1167 0.9311 0.0000
vt 0.0749 0.9368 0.0000
vt 0.1520 0.8426 0.0000
vt 0.1358 0.8193 0.0000
vt 0.0646 0.8647 0.0000
vt 0.1001 0.8749 0.0000
vt 0.1181 0.8439 0.0000
vt 0.0921 0.8173 0.0000
vt 0.2079 0.9193 0.0000
vt 0.0463 0.7982 0.0000
vt 0.0259 0.8333 0.0000
# 135 texture coords

o Dino_Right_Leg
g Dino_Right_Leg
usemtl Dino_Leg
s off
f 1/1/1 2/2/2 3/3/3 4/4/4 
s 2147484672
f 5/5/5 6/6/6 7/7/7 8/8/8 
s 1048576
f 9/9/9 1/1/1 4/4/4 10/10/10 11/11/11 
s off
f 12/12/12 13/13/13 14/14/14 15/15/15 
s 1
f 16/16/16 12/17/12 17/18/17 18/19/18 
s off
f 2/2/2 1/1/1 9/9/9 16/20/16 
f 13/13/13 12/12/12 16/20/16 9/9/9 
s 32768
f 19/21/19 20/22/20 21/23/21 22/24/22 
s 1048576
f 14/14/14 23/25/23 24/26/24 25/27/25 
s 2147483648
f 19/21/19 22/24/22 26/28/26 27/29/27 
s 1
f 22/30/22 28/31/28 29/32/29 26/33/26 
s off
f 15/15/15 14/14/14 25/27/25 30/34/30 
s 1048576
f 25/27/25 24/26/24 31/35/31 32/36/32 
s 2147483648
f 27/29/27 26/28/26 33/37/33 34/38/34 
s 1
f 26/33/26 29/32/29 35/39/35 33/40/33 
s 1024
f 30/34/30 25/27/25 32/36/32 36/41/36 
s 8192
f 37/42/37 38/43/38 39/44/39 40/45/40 
s 2147483648
f 41/46/41 42/47/42 38/43/38 37/42/37 
s 1
f 43/48/43 44/49/44 45/50/45 46/51/46 
s 1024
f 47/52/47 48/53/48 44/54/44 43/55/43 
s 8192
f 49/56/49 50/57/50 51/58/51 52/59/52 
f 38/43/38 49/56/49 52/59/52 39/44/39 
s 1048576
f 47/52/47 32/36/32 31/35/31 40/45/40 
s 2147483648
f 53/60/53 54/61/54 50/57/50 49/56/49 
f 42/47/42 53/60/53 49/56/49 38/43/38 
f 37/42/37 34/38/34 33/37/33 41/46/41 
s 1
f 55/62/55 56/63/56 57/64/57 58/65/57 
f 44/49/44 55/62/55 58/65/57 45/50/45 
f 41/66/41 33/40/33 35/39/35 46/51/46 
s 1024
f 59/67/58 60/68/59 56/69/56 55/70/55 
f 48/53/48 59/67/58 55/70/55 44/54/44 
f 43/55/43 36/41/36 32/36/32 47/52/47 
s 1048576
f 60/68/59 51/58/51 6/6/6 5/5/5 
s 2147483648
f 50/57/50 54/61/54 61/71/60 62/72/61 
s 1
f 54/73/54 57/64/57 7/74/7 61/75/60 
s 2147484672
f 56/69/56 60/68/59 5/5/5 8/8/8 
f 6/6/6 62/72/61 61/71/60 7/7/7 
s 8192
f 23/25/23 19/21/19 27/29/27 24/26/24 
s 1
f 28/31/28 15/76/15 30/77/30 29/32/29 
s 8192
f 24/26/24 27/29/27 34/38/34 31/35/31 
s 1
f 29/32/29 30/77/30 36/78/36 35/39/35 
s 1048576
f 39/44/39 48/53/48 47/52/47 40/45/40 
s 1
f 45/50/45 42/79/42 41/66/41 46/51/46 
s 1048576
f 51/58/51 60/68/59 59/67/58 52/59/52 
f 52/59/52 59/67/58 48/53/48 39/44/39 
s 8192
f 31/35/31 34/38/34 37/42/37 40/45/40 
s 1
f 57/64/57 54/73/54 53/80/53 58/65/57 
f 58/65/57 53/80/53 42/79/42 45/50/45 
f 35/39/35 36/78/36 43/48/43 46/51/46 
s 8192
f 51/58/51 50/57/50 62/72/61 6/6/6 
s 1
f 57/64/57 56/63/56 8/81/8 7/74/7 
f 22/30/22 21/82/21 18/19/18 17/18/17 
s 8192
f 10/10/10 63/83/62 20/22/20 11/11/11 
s 32768
f 20/22/20 63/83/62 64/84/63 21/23/21 
s 8192
f 19/21/19 23/25/23 65/85/64 
s 1048576
f 65/85/64 23/25/23 14/14/14 13/13/13 
s 1
f 21/82/21 64/86/63 66/87/65 18/19/18 
f 18/19/18 66/87/65 3/88/3 2/89/2 16/16/16 
s 1048576
f 13/13/13 9/9/9 11/11/11 65/85/64 
s 8192
f 65/85/64 11/11/11 20/22/20 19/21/19 
s 1
f 12/17/12 15/76/15 28/31/28 17/18/17 
f 17/18/17 28/31/28 22/30/22 
s off
f 4/4/4 3/3/3 67/90/66 68/91/67 
s 2
f 64/84/63 63/83/62 69/92/68 70/93/69 
s off
f 10/10/10 4/4/4 68/91/67 71/94/70 
s 1
f 3/88/3 66/87/65 72/95/71 67/96/66 
s off
f 63/83/62 10/10/10 71/94/70 69/92/68 
s 1
f 66/87/65 64/86/63 70/97/69 72/95/71 
s off
f 67/90/66 72/98/71 71/94/70 68/91/67 
f 72/98/71 70/93/69 69/92/68 71/94/70 
s 1
f 73/99/72 74/100/73 75/101/74 
s 2
f 76/102/75 77/103/76 75/101/74 
s 4
f 71/104/77 73/105/72 75/101/74 
s 8
f 74/100/73 78/106/78 75/101/74 
s 16
f 77/103/76 71/104/77 75/101/74 
s 32
f 78/106/78 76/102/75 75/101/74 
s 1
f 79/107/79 80/108/80 81/109/81 
s 2
f 82/110/82 80/108/80 83/111/83 
s 4
f 72/112/84 80/108/80 79/113/79 
s 8
f 81/109/81 80/108/80 84/114/85 
s 16
f 83/111/83 80/108/80 72/112/84 
s 32
f 84/114/85 80/108/80 82/110/82 
s 1
f 81/115/86 85/116/87 86/117/88 74/118/89 
f 87/119/90 88/120/91 89/121/92 90/122/93 
s 2
f 91/123/94 92/124/95 85/125/87 81/126/86 
s 4
f 74/118/89 86/117/88 93/127/96 94/128/97 
s 2
f 95/129/98 96/130/99 92/124/95 91/123/94 
s 4
f 94/128/97 93/127/96 97/131/100 98/132/101 
s 1
f 85/116/87 99/133/102 86/117/88 
s 8
f 97/131/100 99/133/102 96/130/99 
s 2
f 92/124/95 99/133/102 85/125/87 
s 4
f 86/117/88 99/133/102 93/127/96 
s 2
f 96/130/99 99/133/102 92/124/95 
s 4
f 93/127/96 99/133/102 97/131/100 
f 98/132/101 97/131/100 88/120/91 87/119/90 
s 8
f 97/131/100 96/130/99 89/121/92 88/120/91 
s 2
f 96/130/99 95/129/98 90/122/93 89/121/92 
f 98/132/101 87/119/90 100/134/103 
s 8
f 87/119/90 90/122/93 101/135/104 100/134/103 
s 4
f 90/122/93 95/129/98 101/135/104 
# 78 polygons - 22 triangles

